<svg width="306" height="288" viewBox="0 0 306 288" fill="none" xmlns="http://www.w3.org/2000/svg" xmlns:xlink="http://www.w3.org/1999/xlink">
<path d="M135,1C133.895,1 133,1.895 133,3C133,4.105 133.895,5 135,5L135,1ZM135,103C133.895,103 133,103.895 133,105C133,106.105 133.895,107 135,107L135,103ZM171,5C172.105,5 173,4.105 173,3C173,1.895 172.105,1 171,1L171,5ZM171,107C172.105,107 173,106.105 173,105C173,103.895 172.105,103 171,103L171,107ZM135,5L171,5L171,1L135,1L135,5ZM171,103L135,103L135,107L171,107L171,103Z" transform="rotate(180 153 54)" fill="#A1CAD9"/>
<path d="M200,48.006C197.207,48 194.293,48 191.25,48L114.75,48C111.707,48 108.793,48 106,48.006L106,72C106,74.209 104.209,76 102,76C99.791,76 98,74.209 98,72L98,48.05C72.804,48.299 58.768,49.777 49.453,58.544C38.25,69.088 38.25,86.059 38.25,120L38.25,180C38.25,213.941 38.25,230.912 49.453,241.456C60.656,252 78.688,252 114.75,252L191.25,252C227.312,252 245.344,252 256.546,241.456C267.75,230.912 267.75,213.941 267.75,180L267.75,120C267.75,86.059 267.75,69.088 256.546,58.544C247.232,49.777 233.196,48.299 208,48.05L208,72C208,74.209 206.209,76 204,76C201.791,76 200,74.209 200,72L200,48.006ZM100,144C100,142.895 100.895,142 102,142L204,142C205.105,142 206,142.895 206,144C206,145.105 205.105,146 204,146L102,146C100.895,146 100,145.105 100,144ZM102,190C100.895,190 100,190.895 100,192C100,193.105 100.895,194 102,194L204,194C205.105,194 206,193.105 206,192C206,190.895 205.105,190 204,190L102,190Z" clip-rule="evenodd" fill-rule="evenodd" fill="#A1CAD9"/>
</svg>
