<svg width="390" height="474" viewBox="0 0 390 474" fill="none" xmlns="http://www.w3.org/2000/svg">
<path d="M458.617 356.33L458.605 356.404L458.615 356.477C461.76 380.185 464.841 401.155 467.602 419.697C467.991 422.311 468.374 424.876 468.75 427.393C471.04 442.741 473.068 456.328 474.672 468.357C478.409 496.387 479.83 515.877 476.95 529.429C475.514 536.188 473.012 541.442 469.213 545.537C465.413 549.633 460.282 552.604 453.53 554.741C439.998 559.025 420.08 559.928 391.647 559.928C363.171 559.928 326.869 566.152 288.138 574.385C269.133 578.426 249.533 582.952 229.976 587.468L228.85 587.728C208.918 592.331 189.044 596.914 169.894 600.953C131.582 609.034 96.2099 614.931 69.1069 614.475C55.5548 614.247 44.1134 612.431 35.4178 608.536C26.7393 604.648 20.8085 598.697 18.2141 590.17C12.9402 572.838 5.58057 534.204 2.25468 486.675C-1.0709 439.15 -0.360779 382.769 10.4842 329.936C21.3303 277.098 42.3021 227.861 79.4557 194.56C116.59 161.275 169.958 143.849 245.738 154.752C265.478 157.592 285.353 152.275 304.777 142.176C324.2 132.077 343.206 117.177 361.227 100.799C377.807 85.7299 393.571 69.3919 408.067 54.368C409.326 53.0628 410.576 51.7675 411.816 50.4838C427.339 34.4124 441.301 20.1775 453.163 11.038C459.095 6.46764 464.469 3.19782 469.223 1.60177C473.969 0.00873236 478.043 0.0988973 481.451 2.16157C484.878 4.2354 487.736 8.3648 489.896 15.0865C492.053 21.8016 493.492 31.0381 494.127 43.2266C496.671 91.9964 486.348 187.55 458.617 356.33Z" fill="url(#paint0_linear_96_323)" stroke="black"/>
<defs>
<linearGradient id="paint0_linear_96_323" x1="198.929" y1="0.35683" x2="198.929" y2="778.001" gradientUnits="userSpaceOnUse">
<stop offset="0.0466666" stop-color="#002431"/>
<stop offset="0.755" stop-color="#094454"/>
</linearGradient>
</defs>
</svg>
